<svg xmlns="http://www.w3.org/2000/svg" viewBox="0 0 210 80" role="img" aria-labelledby="title desc">
  <title id="title">Blue toothbrush</title>
  <desc id="desc">A chunky blue toothbrush with oversized bristles.</desc>
  <defs>
    <linearGradient id="handle" x1="0" y1="0" x2="1" y2="0">
      <stop offset="0%" stop-color="#4DB6FF"/>
      <stop offset="100%" stop-color="#176BCE"/>
    </linearGradient>
    <linearGradient id="bristles" x1="0" y1="0" x2="0" y2="1">
      <stop offset="0%" stop-color="#E6FBFF"/>
      <stop offset="100%" stop-color="#9CE6FF"/>
    </linearGradient>
  </defs>
  <path d="M18 46c0-10 8-18 18-18h90c9 0 18-8 18-18h18c0 18-8 30-23 35l-5 2 5 2c15 5 23 17 23 21h-18c0-10-9-18-18-18H36c-10 0-18-8-18-18Z" fill="url(#handle)" stroke="#14519A" stroke-width="8" stroke-linejoin="round"/>
  <rect x="146" y="8" width="42" height="18" rx="7" fill="#FFFFFF" stroke="#14519A" stroke-width="8"/>
  <path d="M150 10v-12M160 10v-16M170 10v-12M180 10v-16" stroke="url(#bristles)" stroke-width="10" stroke-linecap="round"/>
  <circle cx="58" cy="40" r="8" fill="#B8E8FF" opacity=".55"/>
</svg>